<?xml version="1.0" encoding="UTF-8"?>
<svg version="1.1" xmlns="http://www.w3.org/2000/svg" width="995" height="480">
<path d="M0 0 C157.41 0 314.82 0 477 0 C475.19194575 3.61610851 473.86755783 5.38150241 471.08382225 8.16227341 C469.84995216 9.40211664 469.84995216 9.40211664 468.59115541 10.66700721 C467.68260824 11.56972869 466.77406108 12.47245018 465.83798218 13.40252686 C464.86650066 14.37488041 463.89545872 15.34767332 462.92481959 16.32086778 C460.25445166 18.99571347 457.5778779 21.66427337 454.90026617 24.33186507 C452.0145884 27.20891686 449.13468145 30.09173485 446.2540741 32.97386169 C441.26181393 37.96717125 436.265901 42.95680193 431.26749802 47.9439621 C424.04062679 55.15458862 416.81927561 62.37072255 409.59926565 69.58821848 C397.88551472 81.29759069 386.16730315 93.00248835 374.44628906 104.70458984 C363.05950814 116.07301655 351.67482684 127.44353909 340.29296875 138.81689453 C339.59155024 139.5177876 338.89013172 140.21868066 338.1674581 140.94081292 C334.64870825 144.45695272 331.12999969 147.97313385 327.61131167 151.48933554 C298.4139418 180.6659674 269.20933342 209.83534543 240 239 C241.39533169 242.14748245 243.0273038 244.27703936 245.45654488 246.70543385 C246.17665627 247.43014403 246.89676766 248.15485422 247.6387006 248.90152532 C248.43284426 249.69052541 249.22698792 250.47952551 250.04519653 251.29243469 C250.8865562 252.13620877 251.72791586 252.97998285 252.59477127 253.84932584 C254.93133656 256.19055629 257.27231379 258.52721117 259.61525774 260.86204803 C262.14115599 263.38137095 264.66128843 265.90644998 267.18214417 268.43081665 C272.12276583 273.37648284 277.06871714 278.31678596 282.01648231 283.25530449 C287.78073006 289.00916713 293.53974595 294.7682544 299.29855989 300.52755465 C309.57871806 310.80821366 319.86370169 321.08403167 330.15136719 331.35717773 C340.12666597 341.31840527 350.0984724 351.28311147 360.06640625 361.25170898 C360.67966566 361.86500835 361.29292507 362.47830772 361.92476811 363.11019192 C362.84308563 364.02856998 362.84308563 364.02856998 363.77995503 364.96550113 C375.13254552 376.31878256 386.48842837 387.66876581 397.84583566 399.01722855 C401.85788511 403.02626744 405.86896291 407.0362769 409.87973404 411.04659462 C414.77383232 415.94000878 419.66982955 420.83151423 424.56816216 425.72068993 C427.0655293 428.21345777 429.56212613 430.70698346 432.05656242 433.2026844 C434.76595867 435.91338758 437.47924067 438.62018021 440.19290161 441.32661438 C440.97366094 442.10892231 441.75442026 442.89123024 442.55883896 443.69724447 C446.69220815 447.81249923 450.91097231 451.76439477 455.33646476 455.56469983 C458.71727385 458.48166591 461.84276184 461.65840025 465 464.8125 C465.67933594 465.47958984 466.35867188 466.14667969 467.05859375 466.83398438 C467.69925781 467.47271484 468.33992188 468.11144531 469 468.76953125 C469.5775 469.34292236 470.155 469.91631348 470.75 470.50708008 C472 472 472 472 472 474 C471.01124508 474.00135653 470.02249016 474.00271306 469.00377297 474.00411069 C425.44128807 474.0640073 381.87880716 474.12639671 338.31634521 474.20132446 C337.65714027 474.20245809 336.99793533 474.20359171 336.31875448 474.20475969 C321.99348847 474.22940941 307.66822326 474.2545022 293.34295882 474.28005161 C286.31815759 474.29257779 279.29335619 474.30500604 272.26855469 474.31738281 C271.56949134 474.31861614 270.870428 474.31984946 270.15018092 474.32112016 C247.47929954 474.3610714 224.8084142 474.39455166 202.13751783 474.42468691 C178.18625524 474.45655914 154.23501481 474.49578208 130.283777 474.54279006 C115.93018593 474.57072259 101.57661054 474.5927349 87.22299954 474.60726251 C77.39082976 474.61777465 67.55869024 474.63556505 57.72654322 474.65916704 C52.04719176 474.67258258 46.36788287 474.68270474 40.68851471 474.68421364 C35.49474042 474.68566407 30.3010688 474.69620027 25.107326 474.71413441 C23.22302006 474.7190064 21.33870176 474.72046972 19.45439079 474.71827881 C16.90317784 474.71579828 14.35229581 474.72545987 11.80112076 474.73828697 C11.06079515 474.73463729 10.32046953 474.73098761 9.55770981 474.72722733 C5.5612123 474.7620762 3.69270193 475.15364904 0 477 C0 319.59 0 162.18 0 0 Z M26 26 C26 166.25 26 306.5 26 451 C85.73 451 145.46 451 207 451 C206.95617187 435.66789062 206.91234375 420.33578125 206.8671875 404.5390625 C206.86169733 394.83198894 206.85873123 385.1250236 206.8671875 375.41796875 C206.88014244 360.00679996 206.88272609 344.59612434 206.81835938 329.18505859 C206.77152851 317.96117256 206.75981514 306.73789001 206.7900821 295.51393735 C206.80488414 289.57193413 206.80222966 283.63110617 206.75750351 277.68922806 C206.71593052 272.09247869 206.7214327 266.49771969 206.76252174 260.90098572 C206.76937121 258.85077189 206.75924845 256.80041759 206.73056984 254.75039291 C206.52945258 239.36143604 206.52945258 239.36143604 210.02692032 233.74512863 C212.54963259 231.16642209 215.0908595 229.12850325 218 227 C223.72326354 222.24048939 229.03689261 217.10619235 234.2890625 211.83792114 C235.0840235 211.04452013 235.87898451 210.25111912 236.69803524 209.43367565 C239.34273104 206.79294652 241.98386427 204.14868391 244.625 201.50439453 C246.52742702 199.60332339 248.43004761 197.70244778 250.332901 195.80180359 C254.95143589 191.18770053 259.56728146 186.57091631 264.18214768 181.95314427 C267.93059543 178.20243422 271.68002285 174.45270612 275.43014526 170.7036705 C276.23198646 169.90205915 276.23198646 169.90205915 277.05002648 169.08425363 C278.13603297 167.99856687 279.22204171 166.91288235 280.30805266 165.82720004 C290.47354577 155.66455364 300.63597964 145.49885252 310.79735911 135.33209322 C319.52283493 126.6021411 328.25094186 117.87482672 336.98095703 109.14941406 C347.12324702 99.01246865 357.26392204 88.87391221 367.40200233 78.7327565 C368.48145974 77.65298053 369.56091924 76.57320666 370.64038086 75.49343491 C371.17149424 74.96216725 371.70260762 74.43089959 372.24981534 73.88353292 C375.99952344 70.13295998 379.75039354 66.38355154 383.50170898 62.63458633 C388.06537772 58.07371409 392.62727694 53.51108094 397.18687528 48.94613929 C399.51472984 46.61564707 401.84365968 44.28624757 404.1742115 41.95845222 C406.69405079 39.44132008 409.21083025 36.92116936 411.72680664 34.400177 C412.4723027 33.65691166 413.21779877 32.91364632 413.98588562 32.14785779 C414.65324738 31.47788828 415.32060913 30.80791878 416.00819397 30.11764717 C416.59014558 29.53553321 417.17209719 28.95341925 417.77168369 28.35366547 C419.11199783 27.18122069 419.11199783 27.18122069 419 26 C289.31 26 159.62 26 26 26 Z " fill="#D01F32" transform="translate(518,3)"/>
<path d="M0 0 C7.875 6.75 7.875 6.75 11.48456478 10.36151695 C12.30664989 11.18161102 13.12873501 12.00170508 13.97573179 12.84665048 C15.29919696 14.17448492 15.29919696 14.17448492 16.6493988 15.52914429 C17.61218077 16.49148955 18.57518273 17.45361477 19.53838402 18.41554034 C22.16997991 21.04491082 24.79846539 23.67737117 27.42643297 26.31036735 C30.26637398 29.15464085 33.1092189 31.99600937 35.95170593 34.83773804 C40.87129488 39.75680352 45.78905465 44.67769154 50.7055645 49.59983444 C57.81395002 56.71635902 64.92510666 63.83010929 72.0369351 70.94319303 C83.57630468 82.48474936 95.11344095 94.02853546 106.64916992 105.57373047 C117.85274846 116.7864929 129.05738043 127.99820093 140.26342773 139.20849609 C140.95457164 139.89990273 141.64571555 140.59130936 142.35780322 141.30366771 C145.82519609 144.77236565 149.29260964 148.24104291 152.76003349 151.70970988 C181.50989707 180.4699343 210.25613511 209.23378038 239 238 C244.8020136 233.18032369 250.13699467 228.00122791 255.45957947 222.66067505 C256.39252683 221.72858211 257.32547419 220.79648918 258.28669268 219.836151 C260.86128051 217.26378803 263.43275863 214.68833635 266.00371802 212.1123476 C268.78230837 209.32942397 271.56380343 206.54940615 274.34494019 203.76902771 C279.15812452 198.95636679 283.96947988 194.1418837 288.77958488 189.32614517 C295.73412462 182.3634657 302.69143608 175.40356122 309.64941914 168.44432293 C320.93921729 157.15233814 332.22678218 145.85812371 343.51293945 134.5625 C354.47400483 123.59225045 365.43612384 112.62305553 376.3996582 101.65527344 C377.4139716 100.64056595 377.4139716 100.64056595 378.44877618 99.60535933 C381.84124869 96.21158175 385.23374189 92.81782485 388.62624538 89.42407823 C416.75403853 61.28592457 444.87820605 33.1441493 473 5 C475.47898422 7.47898422 475.23815282 8.89672204 475.25816274 12.27915582 C475.25233701 13.02227357 475.24651129 13.76539132 475.24050903 14.53102779 C475.24221753 15.3209072 475.24392602 16.11078661 475.24568629 16.92460176 C475.24900285 19.59964003 475.23792584 22.27443204 475.22705078 24.94944763 C475.2264913 26.87531738 475.22681561 28.80118755 475.22795296 30.72705704 C475.22854669 36.04131782 475.21663673 41.35549014 475.20281315 46.66973031 C475.19010959 52.39236403 475.1889304 58.11500083 475.1864624 63.83764648 C475.18067842 73.76053228 475.16778259 83.68338848 475.15032959 93.6062603 C475.12527415 107.9564855 475.11308036 122.30669964 475.10446286 136.65694309 C475.10040362 143.33761326 475.09579488 150.01828302 475.0909729 156.69895267 C475.09049087 157.36779841 475.09000885 158.03664415 475.08951221 158.72575794 C475.07788387 174.65384698 475.05997074 190.58192799 475.04101562 206.51000977 C475.03977469 207.55571 475.03977469 207.55571 475.03850868 208.62253549 C475.02507456 219.93584135 475.0112598 231.24914674 474.99739599 242.56245208 C474.98441129 253.16150755 474.97156506 263.76056318 474.95898438 274.35961914 C474.9581552 275.05623101 474.95732602 275.75284288 474.95647171 276.4705642 C474.93758238 292.36845872 474.92048401 308.26635241 474.9090271 324.16425419 C474.90830412 325.1659584 474.90830412 325.1659584 474.90756653 326.18789907 C474.90232536 333.51216083 474.89756144 340.8364228 474.89316368 348.16068512 C474.88418364 362.48065298 474.86806727 376.80057978 474.84287405 391.12052847 C474.82606454 400.92695591 474.81625081 410.73337387 474.81202364 420.53981476 C474.80932464 426.20489427 474.80325027 431.86992066 474.78850555 437.53498268 C474.77507528 442.71441398 474.77072115 447.89376818 474.77377677 453.07321525 C474.77323089 454.95341607 474.76924474 456.83361946 474.7615912 458.71380477 C474.75171394 461.25701163 474.75400014 463.79991799 474.75949097 466.34313107 C474.75366524 467.08390765 474.74783952 467.82468424 474.74183726 468.5879086 C474.76363204 472.28575327 474.89075506 473.8361326 477 477 C319.59 477 162.18 477 0 477 C0 319.59 0 162.18 0 0 Z M26 59 C26 188.36 26 317.72 26 451 C166.25 451 306.5 451 451 451 C451 391.27 451 331.54 451 270 C431.48230469 273.54621094 431.48230469 273.54621094 411.5703125 277.1640625 C402.88378133 278.35275549 394.26043413 279.4852338 385.54174805 280.30834961 C383.86663338 280.4670789 383.86663338 280.4670789 382.15767801 280.62901485 C373.82033634 281.39818636 365.4772076 282.04131329 357.125 282.625 C355.35222522 282.75288273 355.35222522 282.75288273 353.5436368 282.88334894 C289.26384535 287.38363271 239.76528142 277.85345166 191.07098389 235.74017334 C165.45573913 213.30624644 141.79555474 188.9110128 118.6875 163.9375 C117.51307682 162.67072861 116.3386017 161.40400537 115.1640749 160.13733006 C88.67407644 131.54453837 62.90890098 102.35812752 38.07266426 72.31595802 C37.32119761 71.40724345 36.56973096 70.49852888 35.79549259 69.5622775 C34.40292158 67.87483919 33.01351899 66.18477934 31.62783629 64.49167997 C31.02627618 63.76078757 30.42471607 63.02989517 29.80492687 62.27685452 C29.28337999 61.63946643 28.7618331 61.00207835 28.22448176 60.34537548 C27.82040278 59.90140157 27.4163238 59.45742766 27 59 C26.67 59 26.34 59 26 59 Z " fill="#263475" transform="translate(0,0)"/>
</svg>
